<?xml version="1.0" encoding="utf-8"?>
<!-- Generator: Adobe Illustrator 19.0.0, SVG Export Plug-In . SVG Version: 6.00 Build 0)  -->
<svg version="1.1" id="Layer_1" xmlns="http://www.w3.org/2000/svg" xmlns:xlink="http://www.w3.org/1999/xlink" x="0px" y="0px"
	 viewBox="-165.7 73.9 511.6 511.6" style="enable-background:new -165.7 73.9 511.6 511.6;" xml:space="preserve">
<style type="text/css">
	.st0{fill:#FFFFFF;}
</style>
<g>
	<g>
		<path class="st0" d="M90.4,211.8c-65,0-117.8,52.9-117.8,117.8c0,65,52.9,117.8,117.8,117.8c65,0,117.8-52.9,117.8-117.8
			C208.2,264.7,155.3,211.8,90.4,211.8z M90.4,415.4c-47.3,0-85.7-38.5-85.7-85.7c0-47.3,38.5-85.7,85.7-85.7s85.7,38.5,85.7,85.7
			C176.1,376.9,137.6,415.4,90.4,415.4z"/>
		<path class="st0" d="M90.4,187.6c8.9,0,16.1-7.2,16.1-16.1V90c0-8.9-7.2-16.1-16.1-16.1c-8.9,0-16.1,7.2-16.1,16.1v81.6
			C74.3,180.4,81.5,187.6,90.4,187.6z"/>
		<path class="st0" d="M90.4,471.8c-8.9,0-16.1,7.2-16.1,16.1v81.6c0,8.9,7.2,16.1,16.1,16.1c8.9,0,16.1-7.2,16.1-16.1v-81.6
			C106.4,479,99.2,471.8,90.4,471.8z"/>
		<path class="st0" d="M329.8,313.7h-81.6c-8.9,0-16.1,7.2-16.1,16.1c0,8.9,7.2,16.1,16.1,16.1h81.6c8.9,0,16.1-7.2,16.1-16.1
			S338.7,313.7,329.8,313.7z"/>
		<path class="st0" d="M-52.1,329.8c0-8.9-7.2-16.1-16.1-16.1h-81.5c-8.9,0-16.1,7.2-16.1,16.1c0,8.9,7.2,16.1,16.1,16.1h81.5
			C-59.2,345.8-52.1,338.7-52.1,329.8z"/>
		<path class="st0" d="M212.8,223.4c4.1,0,8.2-1.6,11.4-4.7l41.7-41.7c6.3-6.3,6.3-16.4,0-22.7c-6.3-6.3-16.4-6.3-22.7,0l-41.7,41.7
			c-6.3,6.3-6.3,16.4,0,22.7C204.6,221.8,208.7,223.4,212.8,223.4z"/>
		<path class="st0" d="M-43.5,440.9l-41.8,41.8c-6.3,6.3-6.3,16.5,0,22.7c3.1,3.1,7.2,4.7,11.4,4.7c4.1,0,8.2-1.6,11.4-4.7
			l41.8-41.8c6.3-6.3,6.3-16.5,0-22.7C-27,434.6-37.2,434.6-43.5,440.9z"/>
		<path class="st0" d="M-43.6,218.7c3.1,3.1,7.2,4.7,11.4,4.7c4.1,0,8.2-1.6,11.4-4.7c6.3-6.3,6.3-16.4,0-22.7l-41.7-41.7
			c-6.3-6.3-16.4-6.3-22.7,0c-6.3,6.3-6.3,16.4,0,22.7L-43.6,218.7z"/>
		<path class="st0" d="M224.1,440.9c-6.3-6.3-16.4-6.3-22.7,0c-6.3,6.3-6.3,16.5,0,22.7l41.8,41.8c3.1,3.1,7.2,4.7,11.4,4.7
			c4.1,0,8.2-1.6,11.4-4.7c6.3-6.3,6.3-16.5,0-22.7C265.9,482.7,224.1,440.9,224.1,440.9z"/>
	</g>
</g>
</svg>
