<?xml version="1.0" encoding="utf-8"?>
<!-- Generator: Adobe Illustrator 19.0.0, SVG Export Plug-In . SVG Version: 6.00 Build 0)  -->
<svg version="1.1" id="Layer_1" xmlns="http://www.w3.org/2000/svg" xmlns:xlink="http://www.w3.org/1999/xlink" x="0px" y="0px"
	 viewBox="-224.3 75 687.3 500.3" style="enable-background:new -224.3 75 687.3 500.3;" xml:space="preserve">
<style type="text/css">
	.st0{fill:none;}
	.st1{fill:#FFFFFF;}
</style>
<g>
	<path class="st0" d="M78.5,375.6c-0.6,1.4-1.4,2.6-2.5,3.7c-1.2,1.1-2.6,2-4.1,2.5c-17.7,15.2-40.7,24.4-65.8,24.4
		c-2.3,0-4.7-0.1-7-0.2c-16.2,15.6-26.3,37.5-26.3,61.7c0,47.3,38.5,85.8,85.8,85.8h283c54.9,0,99.5-44.6,99.5-99.5
		s-44.6-99.5-99.5-99.5c-2.9,0-6,0.2-9.4,0.5c-5.8,0.6-11.1-3.6-11.8-9.4c-3.9-28.8-18.2-55.3-40.1-74.6
		c-22.1-19.5-50.5-30.2-80.1-30.2c-38.2,0-72.4,17.8-94.7,45.5c1.1,6.1,1.8,12.4,1.8,18.8C107.3,332.3,96.3,357.3,78.5,375.6z"/>
	<path class="st0" d="M-4,221.2c-40.6,0-73.7,33-73.7,73.7c0,38.1,29.1,69.6,66.3,73.3c16.2-10.9,35.4-17.5,56.1-18.2
		c0.8-0.7,1.5-1.4,2.2-2.1c0.7-25.6,8.2-49.5,20.6-70.1C59.9,245.4,30.7,221.2-4,221.2z"/>
	<path class="st1" d="M57,360c0-0.7,0-1.3,0.1-2c-0.7,0.7-1.5,1.4-2.2,2.1C55.6,360,56.3,360,57,360z"/>
	<path class="st1" d="M-11.4,368.1c-37.2-3.7-66.3-35.2-66.3-73.3c0-40.7,33.1-73.7,73.7-73.7c34.7,0,63.9,24.2,71.6,56.6
		c5.7-9.4,12.4-18.1,20.1-25.9C71.5,217.4,36.4,193.5-4,193.5c-55.9,0-101.3,45.5-101.3,101.3c0,44.7,29.1,82.7,69.3,96.1
		C-29,382.1-20.7,374.4-11.4,368.1z"/>
	<path class="st1" d="M-4,172.7c7.6,0,13.8-6.2,13.8-13.8V88.8C9.8,81.2,3.6,75-4,75c-7.6,0-13.8,6.2-13.8,13.8v70.1
		C-17.9,166.5-11.7,172.7-4,172.7z"/>
	<path class="st1" d="M-126.5,294.9c0-7.6-6.2-13.8-13.8-13.8h-70.1c-7.6,0-13.8,6.2-13.8,13.8s6.2,13.8,13.8,13.8h70.1
		C-132.6,308.7-126.5,302.6-126.5,294.9z"/>
	<path class="st1" d="M101.2,203.5c3.5,0,7-1.4,9.8-4l35.8-35.8c5.4-5.4,5.4-14.1,0-19.5s-14.1-5.4-19.5,0l-35.8,35.8
		c-5.4,5.4-5.4,14.1,0,19.5C94.1,202.1,97.6,203.5,101.2,203.5z"/>
	<path class="st1" d="M-119.1,390.4l-35.9,35.9c-5.4,5.4-5.4,14.2,0,19.5c2.7,2.7,6.2,4,9.8,4c3.5,0,7-1.4,9.8-4l35.9-35.9
		c5.4-5.4,5.4-14.2,0-19.5C-105,385-113.7,385-119.1,390.4z"/>
	<path class="st1" d="M-119.2,199.4c2.7,2.7,6.2,4,9.8,4c3.5,0,7-1.4,9.8-4c5.4-5.4,5.4-14.1,0-19.5l-35.8-35.8
		c-5.4-5.4-14.1-5.4-19.5,0s-5.4,14.1,0,19.5L-119.2,199.4z"/>
	<path class="st1" d="M341.7,332.5c-0.5,0-0.9,0-1.4,0c-6.3-30.1-22.2-57.6-45.5-78.1c-26.1-23-59.7-35.7-94.5-35.7
		c-40.1,0-76.4,16.6-102.5,43.2c3.6,7.6,6.2,15.6,7.8,24.1c22.3-27.7,56.4-45.5,94.7-45.5c29.5,0,57.9,10.7,80.1,30.2
		c21.9,19.3,36.1,45.8,40.1,74.6c0.8,5.8,6,10,11.8,9.4c3.4-0.3,6.5-0.5,9.4-0.5c54.9,0,99.5,44.6,99.5,99.5s-44.6,99.5-99.5,99.5
		h-283c-47.3,0-85.8-38.5-85.8-85.8c0-24.2,10.1-46.1,26.3-61.7c-8.7-0.6-17-2.3-25-4.9C-40.3,419.3-49,442.5-49,467.6
		C-49,527-0.7,575.2,58.6,575.2h283c66.9,0,121.3-54.4,121.3-121.3S408.6,332.6,341.7,332.5z"/>
	<path class="st1" d="M78.5,375.6c-2.1,2.1-4.3,4.2-6.6,6.2c1.5-0.5,2.9-1.4,4.1-2.5C77.1,378.2,77.9,376.9,78.5,375.6z"/>
	<path class="st1" d="M6.1,378.6c18.7,0,35.8-7,48.8-18.6c-20.7,0.7-40,7.3-56.1,18.2C1.1,378.5,3.6,378.6,6.1,378.6z"/>
	<path class="st1" d="M79.8,305c0-5.9-0.7-11.6-2-17.1c-12.5,20.6-19.9,44.5-20.6,70.1C71,344.6,79.8,325.8,79.8,305z"/>
	<path class="st1" d="M58.6,381.8c2.9,0,5.8,0.1,8.7,0.4c1.6,0.2,3.1,0,4.6-0.5c2.3-2,4.5-4,6.6-6.2c0.6-1.5,0.9-3.2,0.8-4.9
		l-0.1-1.1c-0.2-2.6-0.4-5.1-0.4-7.5c0-28.7,10-55.1,26.7-75.9c-1.6-8.4-4.2-16.5-7.8-24.1c-7.6,7.8-14.4,16.5-20.1,25.9
		c1.3,5.5,2,11.2,2,17.1c0,20.8-8.7,39.6-22.7,53c0,0.7,0,1.3-0.1,2c-0.7,0-1.4,0-2.2,0.1c-13,11.5-30.1,18.6-48.8,18.6
		c-2.5,0-4.9-0.1-7.4-0.4c-9.3,6.3-17.6,13.9-24.5,22.7c7.9,2.6,16.3,4.3,25,4.9C14.6,391,35.5,381.8,58.6,381.8z"/>
</g>
</svg>
