<?xml version="1.0" encoding="utf-8"?>
<!-- Generator: Adobe Illustrator 19.0.0, SVG Export Plug-In . SVG Version: 6.00 Build 0)  -->
<svg version="1.1" id="Layer_1" xmlns="http://www.w3.org/2000/svg" xmlns:xlink="http://www.w3.org/1999/xlink" x="0px" y="0px"
	 viewBox="58 209.1 511.9 356.4" style="enable-background:new 58 209.1 511.9 356.4;" xml:space="preserve">
<style type="text/css">
	.st0{fill:#FFFFFF;}
</style>
<g>
	<g>
		<path class="st0" d="M58,457.9c0,59.4,48.3,107.6,107.6,107.6h283c66.9,0,121.3-54.4,121.3-121.3s-54.4-121.3-121.3-121.3
			c-0.5,0-0.9,0-1.4,0c-6.3-30.1-22.2-57.6-45.5-78.1c-26.1-23-59.7-35.7-94.5-35.7c-78.3,0-142.1,63.1-143.2,141.2
			C105.4,351.2,58,399.1,58,457.9z M79.8,457.9c0-47.3,38.5-85.8,85.8-85.8c2.9,0,5.8,0.1,8.7,0.4c3.2,0.3,6.4-0.8,8.7-3
			c2.3-2.2,3.5-5.4,3.3-8.6l-0.1-1.1c-0.2-2.6-0.4-5.1-0.4-7.5c0-66.9,54.5-121.4,121.4-121.4c29.5,0,57.9,10.7,80.1,30.2
			c21.9,19.3,36.1,45.8,40.1,74.6c0.8,5.8,6,10,11.8,9.4c3.4-0.3,6.5-0.5,9.4-0.5c54.9,0,99.5,44.6,99.5,99.5s-44.6,99.5-99.5,99.5
			h-283C118.3,543.7,79.8,505.2,79.8,457.9z"/>
	</g>
</g>
</svg>
