<?xml version="1.0" encoding="utf-8"?>
<!-- Generator: Adobe Illustrator 19.0.0, SVG Export Plug-In . SVG Version: 6.00 Build 0)  -->
<svg version="1.1" id="Layer_1" xmlns="http://www.w3.org/2000/svg" xmlns:xlink="http://www.w3.org/1999/xlink" x="0px" y="0px"
	 viewBox="10.3 216.5 665.5 361.4" style="enable-background:new 10.3 216.5 665.5 361.4;" xml:space="preserve">
<style type="text/css">
	.st0{fill:none;}
	.st1{fill:#FFFFFF;}
</style>
<g>
	<path class="st0" d="M269.9,362.9c0.4-31.1,10.8-59.9,28.2-83.2c-5-8.6-11.4-16.3-18.9-23c-17-15-38.9-23.3-61.7-23.3
		c-51.6,0-93.5,41.9-93.5,93.5c0,1.9,0.1,3.8,0.3,5.8l0.1,0.9c0.2,2.5-0.8,4.9-2.5,6.6c-1.8,1.7-4.2,2.6-6.7,2.3
		c-2.2-0.2-4.5-0.3-6.7-0.3c-36.4,0-66.1,29.6-66.1,66.1s29.6,66.1,66.1,66.1H164c0-1.3-0.1-2.5-0.1-3.8
		C163.9,411.7,211.3,363.8,269.9,362.9z"/>
	<path class="st1" d="M271.5,384.7c2.9,0,5.8,0.1,8.7,0.4c3.2,0.3,6.4-0.8,8.7-3c2.3-2.2,3.5-5.4,3.3-8.6l-0.1-1.1
		c-0.2-2.6-0.4-5.1-0.4-7.5c0-22.1,6-42.9,16.3-60.8c-2.2-8.6-5.5-16.8-10-24.5c-17.2,23.4-27.6,52.2-28.1,83.3
		c-58.6,0.9-106,48.8-106,107.6c0,1.3,0,2.5,0.1,3.8h21.9c-0.1-1.3-0.1-2.5-0.1-3.8C185.7,423.2,224.2,384.7,271.5,384.7z"/>
	<path class="st1" d="M554.6,335.4c-0.5,0-0.9,0-1.4,0c-6.3-30.1-22.2-57.6-45.5-78.1c-26.1-23-59.7-35.7-94.5-35.7
		c-40.7,0-77.5,17.1-103.7,44.5c4.3,6.5,7.9,13.5,10.7,20.7c22.3-26.5,55.7-43.4,92.9-43.4c29.5,0,57.9,10.7,80.1,30.2
		c21.9,19.3,36.1,45.8,40.1,74.6c0.8,5.8,6,10,11.8,9.4c3.4-0.3,6.5-0.5,9.4-0.5c54.9,0,99.5,44.6,99.5,99.5s-44.6,99.5-99.5,99.5
		h-283c-40.2,0-74-27.8-83.3-65.2h-22.3c9.6,49.5,53.3,87,105.6,87h283c66.9,0,121.3-54.4,121.3-121.3S621.5,335.4,554.6,335.4z"/>
	<path class="st1" d="M93.3,474.3c-36.4,0-66.1-29.6-66.1-66.1s29.6-66.1,66.1-66.1c2.2,0,4.5,0.1,6.7,0.3c2.5,0.2,4.9-0.6,6.7-2.3
		c1.8-1.7,2.7-4.2,2.5-6.6l-0.1-0.9c-0.1-2-0.3-3.9-0.3-5.8c0-51.6,41.9-93.5,93.5-93.5c22.7,0,44.6,8.3,61.7,23.3
		c7.6,6.7,13.9,14.4,18.9,23c3.5-4.7,7.3-9.3,11.4-13.5c-5.4-8.1-11.8-15.6-19.2-22.1c-20.1-17.7-46-27.5-72.8-27.5
		C142,216.5,92.8,265.2,92,325.3c-45.1,0.7-81.7,37.6-81.7,82.9c0,45.7,37.2,82.9,82.9,82.9h57.5c-1.1-5.5-1.7-11.1-1.9-16.8H93.3z"
		/>
	<path class="st1" d="M308.1,304.1c3.5-6.1,7.6-11.9,12.1-17.3c-2.8-7.3-6.4-14.2-10.7-20.7c-4.1,4.3-7.9,8.8-11.4,13.5
		C302.6,287.3,305.9,295.5,308.1,304.1z"/>
	<path class="st1" d="M185.8,474.3h-21.9c0.2,5.7,0.8,11.3,1.9,16.8h22.4C186.9,485.7,186.1,480.1,185.8,474.3z"/>
</g>
</svg>
