<?xml version="1.0" encoding="utf-8"?>
<!-- Generator: Adobe Illustrator 19.0.0, SVG Export Plug-In . SVG Version: 6.00 Build 0)  -->
<svg version="1.1" id="Layer_1" xmlns="http://www.w3.org/2000/svg" xmlns:xlink="http://www.w3.org/1999/xlink" x="0px" y="0px"
	 viewBox="-49 218.8 512 448" style="enable-background:new -49 218.8 512 448;" xml:space="preserve">
<style type="text/css">
	.st0{fill:#FFFFFF;}
</style>
<g>
	<path class="st0" d="M96.7,603.1c-4.3-6.3-12.9-8-19.2-3.7c-6.4,4.3-8,12.9-3.7,19.2l28.4,42.1c4.3,6.4,12.9,8,19.2,3.7
		c3.1-2.1,5.1-5.3,5.8-8.8c0.7-3.5,0-7.2-2.1-10.4L96.7,603.1z"/>
	<path class="st0" d="M176.5,603.1c-4.3-6.3-12.9-8-19.2-3.7c-6.3,4.3-8,12.9-3.7,19.2l28.4,42.1c4.3,6.4,12.9,8,19.2,3.7
		c3.1-2.1,5.1-5.3,5.8-8.8c0.7-3.5,0-7.2-2.1-10.4L176.5,603.1z"/>
	<path class="st0" d="M256.3,603.1c-4.3-6.3-12.9-8-19.2-3.7c-6.4,4.3-8,12.9-3.7,19.2l28.4,42.1c4.3,6.4,12.9,8,19.2,3.7
		c3.1-2.1,5.1-5.3,5.8-8.8c0.7-3.5,0-7.2-2.1-10.4L256.3,603.1z"/>
	<path class="st0" d="M336.1,603.1c-4.3-6.3-12.9-8-19.2-3.7c-6.3,4.3-8,12.9-3.7,19.2l28.4,42.1c4.3,6.4,12.9,8,19.2,3.7
		c3.1-2.1,5.1-5.3,5.8-8.8c0.7-3.5,0-7.2-2.1-10.4L336.1,603.1z"/>
	<path class="st0" d="M341.7,332.5c-0.5,0-0.9,0-1.4,0c-6.3-30.1-22.2-57.6-45.5-78.1c-26.1-23-59.7-35.7-94.5-35.7
		c-40.1,0-76.4,16.6-102.5,43.2c-7.6,7.8-14.4,16.5-20.1,25.9c-12.5,20.6-19.9,44.5-20.6,70.1c-0.7,0.7-1.5,1.4-2.2,2.1
		c-20.7,0.7-40,7.3-56.1,18.2c-9.3,6.3-17.6,13.9-24.5,22.7C-40.3,419.3-49,442.5-49,467.6C-49,527-0.7,575.2,58.6,575.2h283
		c66.9,0,121.3-54.4,121.3-121.3S408.6,332.6,341.7,332.5z M341.7,553.4h-283c-47.3,0-85.8-38.5-85.8-85.8
		c0-24.2,10.1-46.1,26.3-61.7c15.4-14.9,36.4-24.1,59.5-24.1c2.9,0,5.8,0.1,8.7,0.4c1.6,0.2,3.1,0,4.6-0.5c1.5-0.5,2.9-1.4,4.1-2.5
		c1.1-1,1.9-2.3,2.5-3.7c0.6-1.5,0.9-3.2,0.8-4.9l-0.1-1.1c-0.2-2.6-0.4-5.1-0.4-7.5c0-28.7,10-55.1,26.7-75.9
		c22.3-27.7,56.4-45.5,94.7-45.5c29.5,0,57.9,10.7,80.1,30.2c21.9,19.3,36.1,45.8,40.1,74.6c0.8,5.8,6,10,11.8,9.4
		c3.4-0.3,6.5-0.5,9.4-0.5c54.9,0,99.5,44.6,99.5,99.5S396.5,553.4,341.7,553.4z"/>
</g>
</svg>
