<?xml version="1.0" encoding="utf-8"?>
<!-- Generator: Adobe Illustrator 19.0.0, SVG Export Plug-In . SVG Version: 6.00 Build 0)  -->
<svg version="1.1" id="Layer_1" xmlns="http://www.w3.org/2000/svg" xmlns:xlink="http://www.w3.org/1999/xlink" x="0px" y="0px"
	 viewBox="-543.6 468.5 687.1 593.5" style="enable-background:new -543.6 468.5 687.1 593.5;" xml:space="preserve">
<style type="text/css">
	.st0{fill:none;}
	.st1{fill:#FFFFFF;}
</style>
<g>
	<path class="st0" d="M-240.9,769.1c-0.6,1.4-1.4,2.6-2.5,3.7c-1.2,1.1-2.6,2-4.1,2.5c-17.7,15.2-40.7,24.4-65.8,24.4
		c-2.3,0-4.7-0.1-7-0.2c-16.2,15.6-26.3,37.5-26.3,61.7c0,47.3,38.5,85.8,85.8,85.8h283c54.9,0,99.5-44.6,99.5-99.5
		S77.1,748,22.2,748c-2.9,0-6,0.2-9.4,0.5C7,749.1,1.7,744.9,1,739.1c-3.9-28.8-18.2-55.3-40.1-74.6c-22.1-19.5-50.5-30.2-80.1-30.2
		c-38.2,0-72.4,17.8-94.7,45.5c1.1,6.1,1.8,12.4,1.8,18.8C-212.1,725.8-223.1,750.8-240.9,769.1z"/>
	<path class="st0" d="M-323.4,614.7c-40.6,0-73.7,33-73.7,73.7c0,38.1,29.1,69.6,66.3,73.3c16.2-10.9,35.4-17.5,56.1-18.2
		c0.8-0.7,1.5-1.4,2.2-2.1c0.7-25.6,8.2-49.5,20.6-70.1C-259.5,638.9-288.7,614.7-323.4,614.7z"/>
	<path class="st1" d="M-262.4,753.5c0-0.7,0-1.3,0.1-2c-0.7,0.7-1.5,1.4-2.2,2.1C-263.8,753.5-263.1,753.5-262.4,753.5z"/>
	<path class="st1" d="M-330.8,761.6c-37.2-3.7-66.3-35.2-66.3-73.3c0-40.7,33.1-73.7,73.7-73.7c34.7,0,63.9,24.2,71.6,56.6
		c5.7-9.4,12.4-18.1,20.1-25.9c-16.2-34.4-51.3-58.3-91.7-58.3c-55.9,0-101.3,45.5-101.3,101.3c0,44.7,29.1,82.7,69.3,96.1
		C-348.4,775.6-340.1,767.9-330.8,761.6z"/>
	<path class="st1" d="M-323.4,566.2c7.6,0,13.8-6.2,13.8-13.8v-70.1c0-7.6-6.2-13.8-13.8-13.8s-13.8,6.2-13.8,13.8v70.1
		C-337.3,560-331.1,566.2-323.4,566.2z"/>
	<path class="st1" d="M-445.9,688.4c0-7.6-6.2-13.8-13.8-13.8h-70.1c-7.6,0-13.8,6.2-13.8,13.8s6.2,13.8,13.8,13.8h70.1
		C-452,702.2-445.9,696.1-445.9,688.4z"/>
	<path class="st1" d="M-218.2,597c3.5,0,7-1.4,9.8-4l35.8-35.8c5.4-5.4,5.4-14.1,0-19.5c-5.4-5.4-14.1-5.4-19.5,0l-35.8,35.8
		c-5.4,5.4-5.4,14.1,0,19.5C-225.3,595.6-221.8,597-218.2,597z"/>
	<path class="st1" d="M-438.5,783.9l-35.9,35.9c-5.4,5.4-5.4,14.2,0,19.5c2.7,2.7,6.2,4,9.8,4c3.5,0,7-1.4,9.8-4l35.9-35.9
		c5.4-5.4,5.4-14.2,0-19.5C-424.4,778.5-433.1,778.5-438.5,783.9z"/>
	<path class="st1" d="M-438.6,592.9c2.7,2.7,6.2,4,9.8,4c3.5,0,7-1.4,9.8-4c5.4-5.4,5.4-14.1,0-19.5l-35.8-35.8
		c-5.4-5.4-14.1-5.4-19.5,0s-5.4,14.1,0,19.5L-438.6,592.9z"/>
	<path class="st1" d="M22.3,726c-0.5,0-0.9,0-1.4,0c-6.3-30.1-22.2-57.6-45.5-78.1c-26.1-23-59.7-35.7-94.5-35.7
		c-40.1,0-76.4,16.6-102.5,43.2c3.6,7.6,6.2,15.6,7.8,24.1c22.3-27.7,56.4-45.5,94.7-45.5c29.5,0,57.9,10.7,80.1,30.2
		c21.9,19.3,36.1,45.8,40.1,74.6c0.8,5.8,6,10,11.8,9.4c3.4-0.3,6.5-0.5,9.4-0.5c54.9,0,99.5,44.6,99.5,99.5s-44.6,99.5-99.5,99.5
		h-283c-47.3,0-85.8-38.5-85.8-85.8c0-24.2,10.1-46.1,26.3-61.7c-8.7-0.6-17-2.3-25-4.9c-14.5,18.5-23.2,41.7-23.2,66.8
		c0,59.4,48.3,107.6,107.6,107.6h283c66.9,0,121.3-54.4,121.3-121.3S89.2,726.1,22.3,726z"/>
	<path class="st1" d="M-240.9,769.1c-2.1,2.1-4.3,4.2-6.6,6.2c1.5-0.5,2.9-1.4,4.1-2.5C-242.3,771.7-241.5,770.4-240.9,769.1z"/>
	<path class="st1" d="M-313.3,772.1c18.7,0,35.8-7,48.8-18.6c-20.7,0.7-40,7.3-56.1,18.2C-318.3,772-315.8,772.1-313.3,772.1z"/>
	<path class="st1" d="M-239.6,698.5c0-5.9-0.7-11.6-2-17.1c-12.5,20.6-19.9,44.5-20.6,70.1C-248.4,738.1-239.6,719.3-239.6,698.5z"
		/>
	<path class="st1" d="M-260.8,775.3c2.9,0,5.8,0.1,8.7,0.4c1.6,0.2,3.1,0,4.6-0.5c2.3-2,4.5-4,6.6-6.2c0.6-1.5,0.9-3.2,0.8-4.9
		l-0.1-1.1c-0.2-2.6-0.4-5.1-0.4-7.5c0-28.7,10-55.1,26.7-75.9c-1.6-8.4-4.2-16.5-7.8-24.1c-7.6,7.8-14.4,16.5-20.1,25.9
		c1.3,5.5,2,11.2,2,17.1c0,20.8-8.7,39.6-22.7,53c0,0.7,0,1.3-0.1,2c-0.7,0-1.4,0-2.2,0.1c-13,11.5-30.1,18.6-48.8,18.6
		c-2.5,0-4.9-0.1-7.4-0.4c-9.3,6.3-17.6,13.9-24.5,22.7c7.9,2.6,16.3,4.3,25,4.9C-304.8,784.5-283.9,775.3-260.8,775.3z"/>
</g>
<path class="st1" d="M-249.5,1013.8l28.4,42.1c4.3,6.3,12.9,8,19.2,3.7c3.1-2.1,5.1-5.3,5.8-8.8s0-7.2-2.1-10.4l-28.4-42.1
	c-4.3-6.3-12.9-8-19.2-3.7C-252.2,998.8-253.8,1007.4-249.5,1013.8z"/>
<path class="st1" d="M-169.8,1013.8l28.4,42.1c4.3,6.3,12.9,8,19.2,3.7c3.1-2.1,5.1-5.3,5.8-8.8s0-7.2-2.1-10.4l-28.4-42.1
	c-4.3-6.3-12.9-8-19.2-3.7C-172.4,998.8-174,1007.4-169.8,1013.8z"/>
<path class="st1" d="M-90,1013.8l28.4,42.1c4.3,6.3,12.9,8,19.2,3.7c3.1-2.1,5.1-5.3,5.8-8.8c0.7-3.5,0-7.2-2.1-10.4l-28.4-42.1
	c-4.3-6.3-12.9-8-19.2-3.7C-92.6,998.8-94.3,1007.4-90,1013.8z"/>
<path class="st1" d="M-10.2,1013.8l28.4,42.1c4.3,6.3,12.9,8,19.2,3.7c3.1-2.1,5.1-5.3,5.8-8.8s0-7.2-2.1-10.4l-28.4-42.1
	c-4.3-6.3-12.9-8-19.2-3.7C-12.8,998.8-14.5,1007.4-10.2,1013.8z"/>
</svg>
