<?xml version="1.0" encoding="utf-8"?>
<!-- Generator: Adobe Illustrator 19.0.0, SVG Export Plug-In . SVG Version: 6.00 Build 0)  -->
<svg version="1.1" id="Layer_1" xmlns="http://www.w3.org/2000/svg" xmlns:xlink="http://www.w3.org/1999/xlink" x="0px" y="0px"
	 viewBox="-694 198.7 511.9 534.8" style="enable-background:new -694 198.7 511.9 534.8;" xml:space="preserve">
<style type="text/css">
	.st0{fill:#FFFFFF;}
</style>
<g>
	<g>
		<path class="st0" d="M-694,447.5c0,59.4,48.3,107.6,107.6,107.6h283c66.9,0,121.3-54.4,121.3-121.3s-54.4-121.3-121.3-121.3
			c-0.5,0-0.9,0-1.4,0c-6.3-30.1-22.2-57.6-45.5-78.1c-26.1-23-59.7-35.7-94.5-35.7c-78.3,0-142.1,63.1-143.2,141.2
			C-646.6,340.8-694,388.7-694,447.5z M-672.2,447.5c0-47.3,38.5-85.8,85.8-85.8c2.9,0,5.8,0.1,8.7,0.4c3.2,0.3,6.4-0.8,8.7-3
			c2.3-2.2,3.5-5.4,3.3-8.6l-0.1-1.1c-0.2-2.6-0.4-5.1-0.4-7.5c0-66.9,54.5-121.4,121.4-121.4c29.5,0,57.9,10.7,80.1,30.2
			c21.9,19.3,36.1,45.8,40.1,74.6c0.8,5.8,6,10,11.8,9.4c3.4-0.3,6.5-0.5,9.4-0.5c54.9,0,99.5,44.6,99.5,99.5s-44.6,99.5-99.5,99.5
			h-283C-633.7,533.3-672.2,494.8-672.2,447.5z"/>
	</g>
</g>
<g>
	<g>
		<path class="st0" d="M-512.2,714.4l-6.9-4.4l3.1-0.8c1.3,0,2.4-1.1,2.4-2.4c0-1.3-1.1-2.4-2.4-2.4l-8.6,2.2l-11.7-7.5
			c0.5-1.4,0.8-2.8,0.8-4.4c0-1.6-0.3-3-0.9-4.4l11.6-7.5l8.7,2.2c1.3,0,2.4-1.1,2.4-2.4c0-1.3-1.1-2.4-2.4-2.4l-3.2-0.8l6.9-4.4
			c1.1-0.7,1.5-2.1,0.9-3.3c-0.7-1.2-2.1-1.5-3.2-0.9l-7.4,4.8l1.3-5.1c0-1.3-1.1-2.4-2.4-2.4s-2.4,1.1-2.4,2.4l-2.2,8.7l-0.1,0.1
			l-10.9,7c-1.7-1.7-3.8-2.9-6.3-3.4v-11.2l6.6-6.6c1-1,1-2.6,0-3.6c-1-1-2.6-1-3.6,0l-3,3v-6.1c0-1.3-1.1-2.4-2.4-2.4
			c-1.3,0-2.4,1.1-2.4,2.4v6.1l-2.9-2.9c-1-1-2.6-1-3.5,0c-1,1-1,2.6,0,3.5l6.5,6.5v11.3c-2.4,0.5-4.6,1.7-6.3,3.4l-10.9-7l-0.1-0.1
			l-2.2-8.7c0-1.3-1.1-2.4-2.4-2.4c-1.3,0-2.4,1.1-2.4,2.4l1.3,5.1l-7.4-4.8c-1.1-0.7-2.6-0.3-3.2,0.9s-0.3,2.6,0.9,3.3l6.9,4.4
			l-3.2,0.8c-1.3,0-2.4,1.1-2.4,2.4c0,1.3,1.1,2.4,2.4,2.4l8.6-2.2l11.6,7.5c-0.5,1.4-0.9,2.9-0.9,4.4c0,1.5,0.3,3,0.8,4.4
			l-11.7,7.5l-8.6-2.1c-1.3,0-2.4,1.1-2.4,2.4c0,1.3,1.1,2.4,2.4,2.4l3.2,0.8l-6.9,4.4c-1.1,0.7-1.5,2.1-0.9,3.3
			c0.7,1.2,2.1,1.6,3.2,0.9l7.5-4.8l-1.3,5.1c0,1.3,1.1,2.4,2.4,2.4s2.4-1.1,2.4-2.4l2.2-8.7l0.1-0.1l10.9-7c1.7,1.7,3.8,3,6.3,3.5
			v11.3l-6.6,6.5c-1,1-1,2.6,0,3.5c1,1,2.6,1,3.5,0l3-3v6.1c0,1.3,1.1,2.4,2.4,2.4s2.4-1.1,2.4-2.4v-6l2.9,2.9c1,1,2.6,1,3.6,0
			c1-1,1-2.6,0-3.5l-6.5-6.4v-11.4c2.4-0.5,4.6-1.7,6.3-3.5l10.9,7l0.1,0.1l2.2,8.7c0,1.3,1.1,2.4,2.4,2.4s2.4-1.1,2.4-2.4l-1.3-5.1
			l7.5,4.8c1.1,0.7,2.6,0.3,3.2-0.9C-510.6,716.5-511,715.1-512.2,714.4z M-547.4,701.9c-4,0-7.3-3.3-7.3-7.3s3.3-7.3,7.3-7.3
			c4,0,7.3,3.3,7.3,7.3S-543.4,701.9-547.4,701.9z"/>
	</g>
</g>
<g>
	<g>
		<path class="st0" d="M-352.9,682.7l-11.4-7.3l5.2-1.3c2.2,0,4-1.8,4-4c0-2.2-1.8-4-4-4l-14.3,3.6l-19.4-12.5
			c0.9-2.3,1.4-4.7,1.4-7.3c0-2.6-0.5-5.1-1.4-7.4l19.4-12.4l14.4,3.6c2.2,0,4-1.8,4-4c0-2.2-1.8-4-4-4l-5.3-1.3l11.4-7.3
			c1.9-1.1,2.6-3.6,1.5-5.5c-1.1-1.9-3.5-2.6-5.4-1.5l-12.3,7.9l2.1-8.5c0-2.2-1.8-4-4-4s-4,1.8-4,4l-3.6,14.5l-0.1,0.2l-18.2,11.7
			c-2.8-2.9-6.4-4.9-10.4-5.7v-18.7l10.9-10.9c1.6-1.6,1.6-4.3,0-5.9c-1.6-1.6-4.3-1.6-5.9,0l-5,5v-10.2c0-2.2-1.8-4-4-4
			c-2.2,0-4,1.8-4,4v10.2l-4.9-4.9c-1.6-1.6-4.3-1.6-5.9,0c-1.6,1.6-1.6,4.3,0,5.9l10.8,10.8V630c-4.1,0.8-7.7,2.9-10.4,5.7
			l-18.2-11.7l-0.1-0.2l-3.6-14.5c0-2.2-1.8-4-4-4c-2.2,0-4,1.8-4,4l2.1,8.5l-12.3-7.9c-1.9-1.1-4.3-0.5-5.4,1.5
			c-1.1,1.9-0.4,4.4,1.4,5.5l11.4,7.3l-5.3,1.3c-2.2,0-4,1.8-4,4c0,2.2,1.8,4,4,4l14.4-3.6l19.4,12.4c-0.9,2.3-1.4,4.8-1.4,7.4
			c0,2.6,0.5,5,1.4,7.3l-19.4,12.5l-14.3-3.6c-2.2,0-4,1.8-4,4c0,2.2,1.8,4,4,4l5.3,1.3l-11.4,7.4c-1.9,1.1-2.5,3.6-1.4,5.5
			c1.1,1.9,3.5,2.6,5.4,1.5l12.4-8l-2.1,8.6c0,2.2,1.8,4,4,4c2.2,0,4-1.8,4-4l3.6-14.6l0.1-0.2l18.1-11.6c2.8,2.9,6.4,5,10.5,5.8
			v18.9l-10.9,10.9c-1.6,1.6-1.6,4.3,0,5.9c1.6,1.6,4.3,1.6,5.9,0l5-5v10.2c0,2.2,1.8,4,4,4s4-1.8,4-4v-10.1l4.9,4.8
			c1.6,1.6,4.3,1.6,6,0c1.6-1.6,1.6-4.3,0-5.9l-10.8-10.7v-19c4.1-0.8,7.7-2.9,10.5-5.8l18.1,11.6l0.1,0.2l3.6,14.6c0,2.2,1.8,4,4,4
			c2.2,0,4-1.8,4-4l-2.1-8.6l12.4,8c1.9,1.1,4.3,0.4,5.4-1.5C-350.3,686.3-351,683.8-352.9,682.7z M-411.6,661.9
			c-6.7,0-12.1-5.4-12.1-12.1s5.4-12.1,12.1-12.1c6.7,0,12.1,5.4,12.1,12.1S-404.9,661.9-411.6,661.9z"/>
	</g>
</g>
</svg>
