<?xml version="1.0" encoding="utf-8"?>
<!-- Generator: Adobe Illustrator 19.0.0, SVG Export Plug-In . SVG Version: 6.00 Build 0)  -->
<svg version="1.1" id="Layer_1" xmlns="http://www.w3.org/2000/svg" xmlns:xlink="http://www.w3.org/1999/xlink" x="0px" y="0px"
	 viewBox="336.3 620.1 759.9 568.3" style="enable-background:new 336.3 620.1 759.9 568.3;" xml:space="preserve">
<style type="text/css">
	.st0{fill:#FFFFFF;}
</style>
<g transform="translate(0 -540.36)">
	<g>
		<g>
			<path class="st0" d="M1090.5,1329.6c-5.6-4.6-55.5-45.5-90.6-45.5c-20.7,0-36.7,12.9-50.9,24.4c-11,8.8-21.4,17.2-30.9,17.2
				c-8.6,0-18.5-8.1-29-16.8c-14.2-11.6-30.3-24.9-51.4-24.9c-20.9,0-36.5,13.1-50.4,24.6c-10.7,8.9-20.6,17.2-30,17.2
				c-9.7,0-20.1-8.5-31.1-17.5c-13.7-11.3-29.4-24.1-49.3-24.1c-20.7,0-36.7,12.9-50.9,24.4c-11,8.8-21.4,17.2-30.9,17.2
				c-9.4,0-19.5-8.5-30-17.2c-13.9-11.5-29.5-24.6-50.4-24.6c-20.9,0-36.5,13.1-50.4,24.6c-10.7,8.9-20.6,17.2-30,17.2
				c-16.9,0-52.2-22.3-71.8-38.1c-6.9-5.6-16.9-4.5-22.5,2.4c-5.6,6.9-4.5,16.9,2.4,22.5c5.7,4.6,57,45.3,91.9,45.3
				c20.9,0,36.5-13.1,50.4-24.6c10.7-8.9,20.6-17.2,30-17.2s19.5,8.5,30,17.2c13.9,11.5,29.5,24.6,50.4,24.6
				c20.7,0,36.7-12.9,50.9-24.4c11-8.8,21.4-17.2,30.9-17.2c8.6,0,18.5,8.1,29,16.8c14.2,11.6,30.3,24.9,51.4,24.9
				c20.9,0,36.5-13.1,50.4-24.6c10.7-8.9,20.6-17.2,30-17.2c9.7,0,20.1,8.5,31.1,17.5c13.7,11.3,29.4,24.1,49.3,24.1
				c20.7,0,36.7-12.9,50.9-24.4c11-8.8,21.4-17.2,30.9-17.2c16.8,0,51.1,22.2,70,38c3,2.4,6.5,3.7,10.2,3.7l0,0
				c4.6,0,9.1-1.9,12.4-5.7C1098.1,1345.2,1097.2,1335.2,1090.5,1329.6z"/>
			<path class="st0" d="M342.2,1189.1c5.7,4.6,57,45.3,91.9,45.3c20.9,0,36.5-13.1,50.4-24.6c10.7-8.9,20.6-17.2,30-17.2
				c9.4,0,19.5,8.5,30,17.2c13.9,11.5,29.5,24.6,50.4,24.6c20.7,0,36.7-12.9,50.9-24.4c11-8.8,21.4-17.2,30.9-17.2
				c8.6,0,18.5,8.1,29,16.8c14.2,11.6,30.3,24.9,51.4,24.9c20.9,0,36.5-13.1,50.4-24.6c10.7-8.9,20.6-17.2,30-17.2
				c9.7,0,20.1,8.5,31.1,17.5c13.7,11.3,29.4,24.1,49.3,24.1c20.7,0,36.7-12.9,50.9-24.4c11-8.8,21.4-17.2,30.9-17.2
				c16.8,0,51.1,22.2,70,38c3,2.4,6.5,3.7,10.2,3.7l0,0c4.6,0,9.1-1.9,12.4-5.7c5.6-6.9,4.6-16.9-2.1-22.5
				c-5.6-4.8-55.5-45.5-90.6-45.5c-20.7,0-36.7,12.9-50.9,24.4c-11,8.8-21.4,17.2-30.9,17.2c-8.6,0-18.5-8.1-29-16.8
				c-14.2-11.6-30.3-24.9-51.4-24.9c-20.9,0-36.5,13.1-50.4,24.6c-10.7,8.9-20.6,17.2-30,17.2c-9.7,0-20.1-8.5-31.1-17.5
				c-13.7-11.3-29.4-24.1-49.3-24.1c-20.7,0-36.7,12.9-50.9,24.4c-11,8.8-21.4,17.2-30.9,17.2c-9.4,0-19.5-8.5-30-17.2
				c-13.9-11.5-29.5-24.6-50.4-24.6c-20.9,0-36.5,13.1-50.4,24.6c-10.7,8.9-20.6,17.2-30,17.2c-16.9,0-52.2-22.3-71.8-38.1
				c-6.9-5.6-16.9-4.5-22.5,2.4C334.3,1173.4,335.4,1183.5,342.2,1189.1z"/>
			<path class="st0" d="M1090.5,1576.7c-5.6-4.6-55.5-45.5-90.6-45.5c-20.7,0-36.7,12.9-50.9,24.4c-11,8.8-21.4,17.2-30.9,17.2
				c-8.6,0-18.5-8.1-29-16.8c-14.2-11.6-30.3-24.9-51.4-24.9c-20.9,0-36.5,13.1-50.4,24.6c-10.7,8.9-20.6,17.2-30,17.2
				c-9.7,0-20.1-8.5-31.1-17.5c-13.7-11.3-29.4-24.1-49.3-24.1c-20.7,0-36.7,12.9-50.9,24.4c-11,8.8-21.4,17.2-30.9,17.2
				c-9.4,0-19.5-8.5-30-17.2c-13.9-11.5-29.5-24.6-50.4-24.6c-20.9,0-36.5,13.1-50.4,24.6c-10.7,8.9-20.6,17.2-30,17.2
				c-16.9,0-52.2-22.3-71.8-38.1c-6.9-5.6-16.9-4.5-22.5,2.4c-5.6,6.9-4.5,16.9,2.4,22.5c5.7,4.6,57,45.3,91.9,45.3
				c20.9,0,36.5-13.1,50.4-24.6c10.7-8.9,20.6-17.2,30-17.2s19.5,8.5,30,17.2c13.9,11.5,29.5,24.6,50.4,24.6
				c20.7,0,36.7-12.9,50.9-24.4c11-8.8,21.4-17.2,30.9-17.2c8.6,0,18.5,8.1,29,16.8c14.2,11.6,30.3,24.9,51.4,24.9
				c20.9,0,36.5-13.1,50.4-24.6c10.7-8.9,20.6-17.2,30-17.2c9.7,0,20.1,8.5,31.1,17.5c13.7,11.3,29.4,24.1,49.3,24.1
				c20.7,0,36.7-12.9,50.9-24.4c11-8.8,21.4-17.2,30.9-17.2c16.8,0,51.1,22.2,70,38c3,2.4,6.5,3.7,10.2,3.7l0,0
				c4.6,0,9.1-1.9,12.4-5.7C1098.1,1592.4,1097.2,1582.3,1090.5,1576.7z"/>
			<path class="st0" d="M1090.5,1453.2c-5.6-4.6-55.5-45.5-90.6-45.5c-20.7,0-36.7,12.9-50.9,24.4c-11,8.8-21.4,17.2-30.9,17.2
				c-8.6,0-18.5-8.1-29-16.8c-14.2-11.6-30.3-24.9-51.4-24.9c-20.9,0-36.5,13.1-50.4,24.6c-10.7,8.9-20.6,17.2-30,17.2
				c-9.7,0-20.1-8.5-31.1-17.5c-13.7-11.3-29.4-24.1-49.3-24.1c-20.7,0-36.7,12.9-50.9,24.4c-11,8.8-21.4,17.2-30.9,17.2
				c-9.4,0-19.5-8.5-30-17.2c-13.9-11.5-29.5-24.6-50.4-24.6c-20.9,0-36.5,13.1-50.4,24.6c-10.7,8.9-20.6,17.2-30,17.2
				c-16.9,0-52.2-22.3-71.8-38.1c-6.9-5.6-16.9-4.5-22.5,2.4c-5.6,6.9-4.5,16.9,2.4,22.5c5.7,4.6,57,45.3,91.9,45.3
				c20.9,0,36.5-13.1,50.4-24.6c10.7-8.9,20.6-17.2,30-17.2s19.5,8.5,30,17.2c13.9,11.5,29.5,24.6,50.4,24.6
				c20.7,0,36.7-12.9,50.9-24.4c11-8.8,21.4-17.2,30.9-17.2c8.6,0,18.5,8.1,29,16.8c14.2,11.6,30.3,24.9,51.4,24.9
				c20.9,0,36.5-13.1,50.4-24.6c10.7-8.9,20.6-17.2,30-17.2c9.7,0,20.1,8.5,31.1,17.5c13.7,11.3,29.4,24.1,49.3,24.1
				c20.7,0,36.7-12.9,50.9-24.4c11-8.8,21.4-17.2,30.9-17.2c16.8,0,51.1,22.2,70,38c3,2.4,6.5,3.7,10.2,3.7l0,0
				c4.6,0,9.1-2.1,12.4-5.7C1098.1,1468.9,1097.2,1458.8,1090.5,1453.2z"/>
			<path class="st0" d="M1090.5,1700.4c-5.6-4.8-55.5-45.5-90.6-45.5c-20.7,0-36.7,12.9-50.9,24.4c-11,8.8-21.4,17.2-30.9,17.2
				c-8.6,0-18.5-8.1-29-16.8c-14.2-11.6-30.3-24.9-51.4-24.9c-20.9,0-36.5,13.1-50.4,24.6c-10.7,8.9-20.6,17.2-30,17.2
				c-9.7,0-20.1-8.5-31.1-17.5c-13.7-11.3-29.4-24.1-49.3-24.1c-20.7,0-36.7,12.9-50.9,24.4c-11,8.8-21.4,17.2-30.9,17.2
				c-9.4,0-19.5-8.5-30-17.2c-13.9-11.5-29.5-24.6-50.4-24.6c-20.9,0-36.5,13.1-50.4,24.6c-10.7,8.9-20.6,17.2-30,17.2
				c-16.9,0-52.2-22.3-71.8-38.1c-6.9-5.6-16.9-4.5-22.5,2.4c-5.6,6.9-4.5,16.9,2.4,22.5c5.7,4.6,57,45.3,91.9,45.3
				c20.9,0,36.5-13.1,50.4-24.6c10.7-8.9,20.6-17.2,30-17.2s19.5,8.5,30,17.2c13.9,11.5,29.5,24.6,50.4,24.6
				c20.7,0,36.7-12.9,50.9-24.4c11-8.8,21.4-17.2,30.9-17.2c8.6,0,18.5,8.1,29,16.8c14.2,11.6,30.3,24.9,51.4,24.9
				c20.9,0,36.5-13.1,50.4-24.6c10.7-8.9,20.6-17.2,30-17.2c9.7,0,20.1,8.5,31.1,17.5c13.7,11.3,29.4,24.1,49.3,24.1
				c20.7,0,36.7-12.9,50.9-24.4c11-8.8,21.4-17.2,30.9-17.2c16.8,0,51.1,22.2,70,38c3,2.4,6.5,3.7,10.2,3.7l0,0
				c4.6,0,9.1-1.9,12.4-5.7C1098.1,1716,1097.2,1705.9,1090.5,1700.4z"/>
		</g>
	</g>
</g>
</svg>
