<?xml version="1.0" encoding="utf-8"?>
<!-- Generator: Adobe Illustrator 19.0.0, SVG Export Plug-In . SVG Version: 6.00 Build 0)  -->
<svg version="1.1" id="Capa_1" xmlns="http://www.w3.org/2000/svg" xmlns:xlink="http://www.w3.org/1999/xlink" x="0px" y="0px"
	 viewBox="-51 232.2 491.9 377.5" style="enable-background:new -51 232.2 491.9 377.5;" xml:space="preserve">
<style type="text/css">
	.st0{fill:#A970FF;}
</style>
<g>
	<g>
		<g>
			<path class="st0" d="M326.5,400H150.3v58.7h107.5c-16,51-63.7,88.1-120.1,88.1c-69.5,0-125.8-56.3-125.8-125.8
				c0-69.5,56.3-125.8,125.8-125.8c35,0,66.6,14.3,89.5,37.3l42.6-46.3c-34-33.4-80.6-53.9-132.1-53.9C33.5,232.2-51,316.7-51,421
				s84.5,188.7,188.7,188.7c91.3,0,171.2-64.8,188.7-151L326.5,400L326.5,400L326.5,400z"/>
			<polygon class="st0" points="440.9,399.9 404.8,399.9 404.8,363.9 373.9,363.9 373.9,399.9 337.9,399.9 337.9,430.8 373.9,430.8 
				373.9,466.8 404.8,466.8 404.8,430.8 440.9,430.8 			"/>
		</g>
	</g>
</g>
</svg>
