<?xml version="1.0" encoding="utf-8"?>
<!-- Generator: Adobe Illustrator 19.0.0, SVG Export Plug-In . SVG Version: 6.00 Build 0)  -->
<svg version="1.1" id="Layer_1" xmlns="http://www.w3.org/2000/svg" xmlns:xlink="http://www.w3.org/1999/xlink" x="0px" y="0px"
	 viewBox="-226.4 369.5 115.9 103.9" style="enable-background:new -226.4 369.5 115.9 103.9;" xml:space="preserve">
<style type="text/css">
	.st0{fill:#FFFFFF;}
</style>
<g>
	<path class="st0" d="M-111.4,397c-3.3-16.6-15.1-27.3-30.3-27.3c-8.5,0-17.7,3.5-26.7,10.1c-9.1-6.8-18.3-10.3-26.9-10.3
		c-15.2,0-27.1,10.8-30.3,27.6c-4.8,24.9,10.6,58,55.7,76c0.5,0.2,1,0.3,1.5,0.3s1-0.1,1.5-0.3C-121.9,454.7-106.6,421.7-111.4,397z
		 M-168.4,464.9c-39.6-16.4-53.3-45-49.2-66.3c2.4-12.7,11.2-21,22.3-21c7.5,0,15.9,3.6,24.3,10.5c1.5,1.2,3.6,1.2,5.1,0
		c8.4-6.7,16.7-10.2,24.2-10.2c11.1,0,19.8,8.1,22.3,20.7C-115.3,419.7-128.9,448.2-168.4,464.9z"/>
</g>
</svg>
