<?xml version="1.0" encoding="utf-8"?>
<!-- Generator: Adobe Illustrator 19.0.0, SVG Export Plug-In . SVG Version: 6.00 Build 0)  -->
<svg version="1.1" id="Layer_1" xmlns="http://www.w3.org/2000/svg" xmlns:xlink="http://www.w3.org/1999/xlink" x="0px" y="0px"
	 viewBox="-129 232.9 336 376" style="enable-background:new -129 232.9 336 376;" xml:space="preserve">
<style type="text/css">
	.st0{fill:#5C3D8B;}
</style>
<g>
	<g>
		<g>
			<path class="st0" d="M47,265.3v-32.4H31v32.4c-88.9,4.2-160,77.7-160,167.6v16h16c0-17.6,14.4-32,32-32s32,14.4,32,32h16
				c0-17.6,14.4-32,32-32s32,14.4,32,32v128c0,17.6,14.4,32,32,32s32-14.4,32-32v-16H79v16c0,8.8-7.2,16-16,16s-16-7.2-16-16v-128
				c0-17.6,14.4-32,32-32s32,14.4,32,32h16c0-17.6,14.4-32,32-32s32,14.4,32,32h16v-16C207,343,135.9,269.5,47,265.3z M-48.5,413.6
				c-8.6-7.9-20-12.7-32.5-12.7c-11.6,0-22.2,4.1-30.6,11c9.1-65.6,60.3-117.9,125.3-128.8C-22.8,316.9-45.2,363.6-48.5,413.6z
				 M79,400.9c-16.7,0-31.4,8.5-40,21.5c-8.6-13-23.3-21.5-40-21.5c-12,0-23,4.5-31.4,11.8c4-51.4,30-98.8,71.4-129.8
				c41.4,31,67.4,78.4,71.4,129.8C102,405.4,91,400.9,79,400.9z M159,400.9c-12.5,0-23.9,4.8-32.5,12.7
				c-3.3-50-25.8-96.6-62.3-130.5c65,10.9,116.2,63.2,125.3,128.8C181.2,405,170.6,400.9,159,400.9z"/>
		</g>
	</g>
</g>
</svg>
