<?xml version="1.0" encoding="utf-8"?>
<!-- Generator: Adobe Illustrator 19.0.0, SVG Export Plug-In . SVG Version: 6.00 Build 0)  -->
<svg version="1.1" id="Layer_1" xmlns="http://www.w3.org/2000/svg" xmlns:xlink="http://www.w3.org/1999/xlink" x="0px" y="0px"
	 viewBox="0 0 286.3 289" style="enable-background:new 0 0 286.3 289;" xml:space="preserve">
<style type="text/css">
	.st0{fill:#FFFFFF;}
	.st1{fill:#8D74B4;}
</style>
<rect id="XMLID_1_" class="st0" width="286.3" height="289"/>
<path class="st1" d="M254.6,228.2l-50.9-50.9c-0.3-0.3-0.6-0.5-0.9-0.7c10-15.2,15.9-33.4,15.9-52.9c0-53.2-43.1-96.3-96.3-96.3
	S26,70.5,26,123.7c0,53.2,43.1,96.3,96.3,96.3c19.6,0,37.7-5.8,52.9-15.9c0.3,0.3,0.4,0.6,0.7,0.9l50.9,50.9c7.6,7.6,20,7.6,27.7,0
	C262.2,248.3,262.2,235.9,254.6,228.2z M122.3,186.6c-34.8,0-62.9-28.2-62.9-62.9c0-34.8,28.2-62.9,62.9-62.9
	c34.8,0,62.9,28.2,62.9,62.9C185.3,158.4,157.1,186.6,122.3,186.6z"/>
</svg>
